<svg xmlns="http://www.w3.org/2000/svg" viewBox="0 0 428.28 71.488"><path fill="#4b4748" d="M4.875 37.046c0-8.8 4.9-16.698 12.78-20.617 2.003-.992 3.763-1.495 5.234-1.495.19 0 .355.024.526.04 2.327.306 4.468 2.506 4.468 2.506s1.852-2.17 4.365-2.5c.2-.02.4-.045.63-.045 1.47 0 3.23.503 5.226 1.49.362.182.71.377 1.06.575l6.665-1.272c-1.694-1.428-3.55-2.67-5.554-3.667-2.422-1.198-4.458-1.757-6.162-1.935l-.03.007c-1.17-.043-1.982.38-2.652.962 2.357-3.608 6.15-8.17 12.3-11.088C35.42 1.832 31.295 5.22 27.67 9.324c-4.484-4.336-9.14-3.47-9.14-3.47 3.093.94 4.827 3.143 5.413 5.174-.74-.527-1.598-.903-2.615-.864l-.002.003h-.007c-1.633.212-3.56.77-5.826 1.895C6.312 16.624.002 26.098.002 37.047c0 3.48.645 6.81 1.81 9.887l3.653-4.74c-.38-1.656-.587-3.377-.587-5.147M50.84 38.49c-.746 12.016-10.755 21.565-22.956 21.565-.484 0-.962-.02-1.438-.05l-3.667 3.74-.288.658c1.744.344 3.546.527 5.392.527 15.4 0 27.883-12.482 27.883-27.883 0-2.744-.398-5.396-1.135-7.9l-3.79 9.343"/><path fill="#fbc707" d="M3.325 50.194l12.61 21.293 3.62-8.325-6.697-25.34-9.533 12.372"/><path fill="#f8a10e" d="M30.413 23.706L17.655 31.73l3.89 28.717 8.484-8.655.383-28.086"/><path fill="#f36717" d="M33.03 50.294l10.875-3.19L56.114 17.01l-19.91 3.8-3.174 29.484"/><path fill="#4b4748" d="M105.39 16.133h-8.97L79.91 31.7c-1.485 1.408-2.225 2.438-2.225 3.09 0 .73.766 1.786 2.3 3.167l17.074 15.87h8.857l-20.13-19.113 19.6-18.582M69.96 53.826h7.5V16.132h-7.5v37.694zM131.775 45.797c0 2.06-1.546 3.09-4.636 3.09h-9.5c-1.333 0-2.464-.27-3.393-.81-.93-.54-1.395-1.324-1.395-2.355v-2.79c0-2.36 1.57-3.543 4.712-3.543h12.665c1.03 0 1.545.314 1.545.942v5.465zm-4.11-20.392H106.37v4.863h20.39c2.06 0 3.444.39 4.147 1.168.578.678.892 1.81.943 3.393h-15.83c-3.043 0-5.436.615-7.182 1.846-1.747 1.23-2.62 2.99-2.62 5.277v5.012c0 2.212.98 3.934 2.94 5.165 1.81 1.13 4.223 1.696 7.237 1.696h12.665c2.89 0 5.17-.653 6.84-1.96 1.673-1.307 2.51-3.016 2.51-5.126V32.605c0-4.8-3.582-7.2-10.745-7.2M164.825 25.405H153.14c-6.735 0-10.102 2.89-10.102 8.67V53.75h6.633V35.77c0-2.89 1.886-4.334 5.656-4.334h7.388c3.718 0 5.578 1.445 5.578 4.335v17.98h6.56V34.075c0-5.78-3.343-8.67-10.027-8.67M205.225 45.08c0 1.384-.34 2.3-1.02 2.753-.903.754-2.36 1.13-4.37 1.13h-8.03c-3.87 0-5.804-1.206-5.804-3.618V31.55c0-.804.54-1.207 1.62-1.207h12.215c3.592 0 5.39 1.32 5.39 3.96v10.78zm3.94-17.47c-1.8-1.37-4.24-2.054-7.332-2.054H186V16.17h-6.633V46.1c0 2.688 1.043 4.648 3.13 5.88 2.084 1.23 4.622 1.846 7.612 1.846h11.646c6.735 0 10.103-2.526 10.103-7.576V33.02c0-2.237-.9-4.04-2.696-5.41M242.113 45.797c0 2.06-1.545 3.09-4.637 3.09h-9.498c-1.333 0-2.463-.27-3.393-.81-.93-.54-1.395-1.324-1.395-2.355v-2.79c0-2.36 1.57-3.543 4.713-3.543h12.665c1.03 0 1.544.314 1.544.942v5.465zm-4.11-20.392H216.71v4.863h20.39c2.062 0 3.443.39 4.147 1.168.578.678.89 1.81.943 3.393h-15.832c-3.04 0-5.433.615-7.18 1.846-1.747 1.23-2.62 2.99-2.62 5.277v5.012c0 2.212.98 3.934 2.94 5.165 1.81 1.13 4.223 1.696 7.238 1.696h12.664c2.89 0 5.17-.653 6.842-1.96 1.67-1.307 2.506-3.016 2.506-5.126V32.605c0-4.8-3.58-7.2-10.742-7.2M275.163 25.405h-11.685c-6.735 0-10.103 2.89-10.103 8.67V53.75h6.634V35.77c0-2.89 1.884-4.334 5.654-4.334h7.387c3.72 0 5.58 1.445 5.58 4.335v17.98h6.56V34.075c0-5.78-3.344-8.67-10.028-8.67"/><path fill="#f8a10e" d="M294.675 17.942c-2.313 1.51-3.467 3.48-3.467 5.918v29.967h7.5V37.77h26.008v-5.43h-26.008v-6.746c0-2.588 2.086-3.883 6.257-3.883h19.75v-5.5H302.93c-3.644 0-6.395.577-8.255 1.732M330.55 53.826h6.634V16.132h-6.634v37.694zM368.163 45.496c0 1.18-.515 2.073-1.547 2.676-.778.528-1.908.792-3.39.792h-8.822c-1.533 0-2.714-.264-3.543-.792-1.08-.603-1.62-1.52-1.62-2.75V34c0-1.307.54-2.262 1.62-2.865.88-.578 2.225-.867 4.034-.867h7.88c1.732 0 3.014.29 3.842.867 1.032.603 1.547 1.558 1.547 2.865v11.496zm3.467-18.545c-1.482-.978-3.82-1.47-7.01-1.47H353.12c-3.19 0-5.59.492-7.198 1.47-2.213 1.36-3.318 3.268-3.318 5.73v14.135c0 2.162.873 3.87 2.62 5.127 1.746 1.256 4.38 1.884 7.896 1.884h11.497c3.09 0 5.402-.49 6.935-1.47 2.16-1.28 3.24-3.128 3.24-5.54V32.68c0-2.537-1.054-4.447-3.165-5.73M421.45 25.03l-7.426 22.615-6.106-19.15c-.754-2.46-2.35-3.693-4.788-3.693-2.41 0-4.01 1.232-4.786 3.694l-6.145 19.15-7.426-22.617h-6.484l8.18 25.33c.88 2.663 2.676 3.994 5.39 3.994 2.84 0 4.65-1.256 5.428-3.77l5.692-18.544 5.955 18.545c.83 2.513 2.575 3.77 5.24 3.77 2.79 0 4.622-1.332 5.503-3.996l8.255-25.33h-6.483"/></svg>